<mxfile host="app.diagrams.net" modified="2022-12-31T08:45:21.913Z" agent="5.0 (Windows NT 10.0; Win64; x64) AppleWebKit/537.36 (KHTML, like Gecko) Chrome/108.0.0.0 Safari/537.36 Edg/108.0.1462.54" version="20.7.4" etag="m62AsdLSeyAHPIEdBFZm" type="github">
  <diagram id="ybyxNo7Pwsrs2piOGtnd" name="第 1 页">
    <mxGraphModel dx="1750" dy="1018" grid="1" gridSize="10" guides="1" tooltips="1" connect="1" arrows="1" fold="1" page="1" pageScale="1" pageWidth="3300" pageHeight="4681" math="1" shadow="0">
      <root>
        <mxCell id="0" />
        <mxCell id="1" parent="0" />
        <mxCell id="AEgsP8jyehNwxKYyaoc1-1" value="" style="fontColor=#0066CC;verticalAlign=top;verticalLabelPosition=bottom;labelPosition=center;align=center;html=1;outlineConnect=0;fillColor=#CCCCCC;strokeColor=#6881B3;gradientColor=none;gradientDirection=north;strokeWidth=2;shape=mxgraph.networks.radio_tower;" vertex="1" parent="1">
          <mxGeometry x="840" y="670" width="120" height="170" as="geometry" />
        </mxCell>
        <mxCell id="AEgsP8jyehNwxKYyaoc1-2" value="" style="points=[];aspect=fixed;html=1;align=center;shadow=0;dashed=0;image;image=img/lib/allied_telesis/wireless/Laptop_Wireless.svg;" vertex="1" parent="1">
          <mxGeometry x="200" y="100" width="57.599999999999994" height="47.400000000000006" as="geometry" />
        </mxCell>
        <mxCell id="AEgsP8jyehNwxKYyaoc1-4" value="" style="points=[];aspect=fixed;html=1;align=center;shadow=0;dashed=0;image;image=img/lib/allied_telesis/wireless/Laptop_Wireless.svg;" vertex="1" parent="1">
          <mxGeometry x="200" y="920" width="121.51" height="100" as="geometry" />
        </mxCell>
        <mxCell id="AEgsP8jyehNwxKYyaoc1-7" value="" style="endArrow=none;dashed=1;html=1;rounded=0;" edge="1" parent="1">
          <mxGeometry width="50" height="50" relative="1" as="geometry">
            <mxPoint x="200" y="160" as="sourcePoint" />
            <mxPoint x="1040" y="160" as="targetPoint" />
          </mxGeometry>
        </mxCell>
        <mxCell id="AEgsP8jyehNwxKYyaoc1-8" value="" style="endArrow=none;dashed=1;html=1;rounded=0;" edge="1" parent="1">
          <mxGeometry width="50" height="50" relative="1" as="geometry">
            <mxPoint x="200" y="520" as="sourcePoint" />
            <mxPoint x="200" y="160" as="targetPoint" />
          </mxGeometry>
        </mxCell>
        <mxCell id="AEgsP8jyehNwxKYyaoc1-14" value="$$\textrm{Phase Matrix}&lt;br&gt;\,\bf \Theta$$" style="rounded=0;whiteSpace=wrap;html=1;fillColor=#fff2cc;strokeColor=#d6b656;" vertex="1" parent="1">
          <mxGeometry x="300" y="450" width="110" height="50" as="geometry" />
        </mxCell>
        <mxCell id="AEgsP8jyehNwxKYyaoc1-15" value="$$\textrm{Codebook }\mathcal{W}$$" style="rounded=1;whiteSpace=wrap;html=1;fillColor=#fad7ac;strokeColor=#b46504;" vertex="1" parent="1">
          <mxGeometry x="300" y="360" width="110" height="40" as="geometry" />
        </mxCell>
        <mxCell id="AEgsP8jyehNwxKYyaoc1-17" value="" style="endArrow=classic;html=1;rounded=0;exitX=0.5;exitY=0;exitDx=0;exitDy=0;entryX=0.5;entryY=1;entryDx=0;entryDy=0;" edge="1" parent="1" source="AEgsP8jyehNwxKYyaoc1-14" target="AEgsP8jyehNwxKYyaoc1-15">
          <mxGeometry width="50" height="50" relative="1" as="geometry">
            <mxPoint x="510" y="430" as="sourcePoint" />
            <mxPoint x="560" y="380" as="targetPoint" />
          </mxGeometry>
        </mxCell>
        <mxCell id="AEgsP8jyehNwxKYyaoc1-18" value="$$\mathcal W=\cos(\bf \Theta)+j*\sin(\bf \Theta)$$" style="text;html=1;align=center;verticalAlign=middle;resizable=0;points=[];autosize=1;strokeColor=none;fillColor=none;" vertex="1" parent="1">
          <mxGeometry x="310" y="400" width="290" height="30" as="geometry" />
        </mxCell>
        <mxCell id="AEgsP8jyehNwxKYyaoc1-26" value="$$\bf h \in \mathcal H_1$$" style="text;html=1;align=center;verticalAlign=middle;resizable=0;points=[];autosize=1;strokeColor=none;fillColor=none;" vertex="1" parent="1">
          <mxGeometry x="265" y="210" width="160" height="30" as="geometry" />
        </mxCell>
        <mxCell id="AEgsP8jyehNwxKYyaoc1-27" value="&lt;font face=&quot;Times New Roman&quot; style=&quot;font-size: 14px;&quot;&gt;Complex Fully Connected $$\Large \otimes$$&lt;/font&gt;" style="rounded=1;whiteSpace=wrap;html=1;fillColor=#dae8fc;strokeColor=#6c8ebf;" vertex="1" parent="1">
          <mxGeometry x="410" y="230" width="170" height="70" as="geometry" />
        </mxCell>
        <mxCell id="AEgsP8jyehNwxKYyaoc1-31" value="&lt;font face=&quot;Times New Roman&quot;&gt;Power Calculation&lt;/font&gt;" style="whiteSpace=wrap;html=1;aspect=fixed;fontSize=14;fillColor=#ffe6cc;strokeColor=#d79b00;" vertex="1" parent="1">
          <mxGeometry x="660" y="225" width="80" height="80" as="geometry" />
        </mxCell>
        <mxCell id="AEgsP8jyehNwxKYyaoc1-33" value="$$\bf z$$" style="text;html=1;align=center;verticalAlign=middle;resizable=0;points=[];autosize=1;strokeColor=none;fillColor=none;fontSize=14;" vertex="1" parent="1">
          <mxGeometry x="580" y="235" width="80" height="30" as="geometry" />
        </mxCell>
        <mxCell id="AEgsP8jyehNwxKYyaoc1-34" value="$$softmax$$" style="rounded=0;whiteSpace=wrap;html=1;fontSize=14;fillColor=#f8cecc;strokeColor=#b85450;" vertex="1" parent="1">
          <mxGeometry x="800" y="240" width="70" height="50" as="geometry" />
        </mxCell>
        <mxCell id="AEgsP8jyehNwxKYyaoc1-35" value="$$\arg\max$$" style="rounded=0;whiteSpace=wrap;html=1;fontSize=14;fillColor=#f0a30a;fontColor=#000000;strokeColor=#BD7000;" vertex="1" parent="1">
          <mxGeometry x="790" y="350" width="90" height="40" as="geometry" />
        </mxCell>
        <mxCell id="AEgsP8jyehNwxKYyaoc1-39" value="" style="endArrow=classic;html=1;rounded=0;fontSize=14;exitX=0.5;exitY=1;exitDx=0;exitDy=0;entryX=0.5;entryY=0;entryDx=0;entryDy=0;" edge="1" parent="1" source="AEgsP8jyehNwxKYyaoc1-34" target="AEgsP8jyehNwxKYyaoc1-35">
          <mxGeometry width="50" height="50" relative="1" as="geometry">
            <mxPoint x="760" y="440" as="sourcePoint" />
            <mxPoint x="810" y="390" as="targetPoint" />
          </mxGeometry>
        </mxCell>
        <mxCell id="AEgsP8jyehNwxKYyaoc1-42" value="" style="endArrow=classic;html=1;rounded=0;fontSize=14;exitX=1;exitY=0.5;exitDx=0;exitDy=0;entryX=0;entryY=0.5;entryDx=0;entryDy=0;" edge="1" parent="1" source="AEgsP8jyehNwxKYyaoc1-31" target="AEgsP8jyehNwxKYyaoc1-34">
          <mxGeometry width="50" height="50" relative="1" as="geometry">
            <mxPoint x="750" y="420" as="sourcePoint" />
            <mxPoint x="800" y="370" as="targetPoint" />
          </mxGeometry>
        </mxCell>
        <mxCell id="AEgsP8jyehNwxKYyaoc1-43" value="$$\bf q$$" style="text;html=1;align=center;verticalAlign=middle;resizable=0;points=[];autosize=1;strokeColor=none;fillColor=none;fontSize=14;" vertex="1" parent="1">
          <mxGeometry x="730" y="235" width="80" height="30" as="geometry" />
        </mxCell>
        <mxCell id="AEgsP8jyehNwxKYyaoc1-44" value="$$\bf s$$" style="text;html=1;align=center;verticalAlign=middle;resizable=0;points=[];autosize=1;strokeColor=none;fillColor=none;fontSize=14;" vertex="1" parent="1">
          <mxGeometry x="810" y="305" width="80" height="30" as="geometry" />
        </mxCell>
        <mxCell id="AEgsP8jyehNwxKYyaoc1-46" value="" style="endArrow=classic;html=1;rounded=0;fontSize=14;exitX=1;exitY=0.5;exitDx=0;exitDy=0;" edge="1" parent="1" source="AEgsP8jyehNwxKYyaoc1-35">
          <mxGeometry width="50" height="50" relative="1" as="geometry">
            <mxPoint x="750" y="430" as="sourcePoint" />
            <mxPoint x="960" y="370" as="targetPoint" />
          </mxGeometry>
        </mxCell>
        <mxCell id="AEgsP8jyehNwxKYyaoc1-47" value="" style="endArrow=classic;html=1;rounded=0;fontSize=14;exitX=1;exitY=0.5;exitDx=0;exitDy=0;" edge="1" parent="1" source="AEgsP8jyehNwxKYyaoc1-34">
          <mxGeometry width="50" height="50" relative="1" as="geometry">
            <mxPoint x="890" y="380" as="sourcePoint" />
            <mxPoint x="960" y="265" as="targetPoint" />
          </mxGeometry>
        </mxCell>
        <mxCell id="AEgsP8jyehNwxKYyaoc1-48" value="$$\bf c$$" style="text;html=1;align=center;verticalAlign=middle;resizable=0;points=[];autosize=1;strokeColor=none;fillColor=none;fontSize=14;" vertex="1" parent="1">
          <mxGeometry x="880" y="335" width="80" height="30" as="geometry" />
        </mxCell>
        <mxCell id="AEgsP8jyehNwxKYyaoc1-49" value="$$\bf s$$" style="text;html=1;align=center;verticalAlign=middle;resizable=0;points=[];autosize=1;strokeColor=none;fillColor=none;fontSize=14;" vertex="1" parent="1">
          <mxGeometry x="880" y="240" width="80" height="30" as="geometry" />
        </mxCell>
        <mxCell id="AEgsP8jyehNwxKYyaoc1-50" value="&lt;font face=&quot;Times New Roman&quot;&gt;&lt;b&gt;Loss Function&lt;/b&gt;&lt;/font&gt;" style="rounded=0;whiteSpace=wrap;html=1;fontSize=14;fillColor=#f8cecc;gradientColor=#ea6b66;strokeColor=#b85450;" vertex="1" parent="1">
          <mxGeometry x="960" y="240" width="60" height="150" as="geometry" />
        </mxCell>
        <mxCell id="AEgsP8jyehNwxKYyaoc1-54" value="" style="edgeStyle=segmentEdgeStyle;endArrow=classic;html=1;curved=0;rounded=0;endSize=8;startSize=8;fontFamily=Times New Roman;fontSize=14;exitX=0.5;exitY=0;exitDx=0;exitDy=0;entryX=0;entryY=0.714;entryDx=0;entryDy=0;entryPerimeter=0;" edge="1" parent="1" source="AEgsP8jyehNwxKYyaoc1-15" target="AEgsP8jyehNwxKYyaoc1-27">
          <mxGeometry width="50" height="50" relative="1" as="geometry">
            <mxPoint x="320" y="330" as="sourcePoint" />
            <mxPoint x="370" y="280" as="targetPoint" />
            <Array as="points">
              <mxPoint x="350" y="360" />
              <mxPoint x="350" y="280" />
            </Array>
          </mxGeometry>
        </mxCell>
        <mxCell id="AEgsP8jyehNwxKYyaoc1-55" value="" style="edgeStyle=segmentEdgeStyle;endArrow=classic;html=1;curved=0;rounded=0;endSize=8;startSize=8;fontFamily=Times New Roman;fontSize=14;exitX=1;exitY=0.5;exitDx=0;exitDy=0;" edge="1" parent="1">
          <mxGeometry width="50" height="50" relative="1" as="geometry">
            <mxPoint x="280" y="240" as="sourcePoint" />
            <mxPoint x="410" y="240" as="targetPoint" />
          </mxGeometry>
        </mxCell>
        <mxCell id="AEgsP8jyehNwxKYyaoc1-56" value="" style="edgeStyle=segmentEdgeStyle;endArrow=classic;html=1;curved=0;rounded=0;endSize=8;startSize=8;sourcePerimeterSpacing=0;targetPerimeterSpacing=0;fontFamily=Times New Roman;fontSize=14;exitX=1;exitY=0.5;exitDx=0;exitDy=0;entryX=0;entryY=0.5;entryDx=0;entryDy=0;" edge="1" parent="1" source="AEgsP8jyehNwxKYyaoc1-27" target="AEgsP8jyehNwxKYyaoc1-31">
          <mxGeometry width="100" relative="1" as="geometry">
            <mxPoint x="570" y="290" as="sourcePoint" />
            <mxPoint x="670" y="330" as="targetPoint" />
            <Array as="points">
              <mxPoint x="640" y="265" />
              <mxPoint x="640" y="265" />
            </Array>
          </mxGeometry>
        </mxCell>
        <mxCell id="AEgsP8jyehNwxKYyaoc1-58" value="SGD Updating" style="shape=ext;double=1;rounded=0;whiteSpace=wrap;html=1;fontFamily=Times New Roman;fontSize=14;fillColor=#fad9d5;strokeColor=#ae4132;" vertex="1" parent="1">
          <mxGeometry x="410" y="450" width="70" height="50" as="geometry" />
        </mxCell>
        <mxCell id="AEgsP8jyehNwxKYyaoc1-62" value="" style="edgeStyle=segmentEdgeStyle;endArrow=classic;html=1;curved=0;rounded=0;endSize=8;startSize=8;dashed=1;fontFamily=Times New Roman;fontSize=14;exitX=0.5;exitY=1;exitDx=0;exitDy=0;entryX=1;entryY=0.5;entryDx=0;entryDy=0;" edge="1" parent="1" source="AEgsP8jyehNwxKYyaoc1-50" target="AEgsP8jyehNwxKYyaoc1-58">
          <mxGeometry width="50" height="50" relative="1" as="geometry">
            <mxPoint x="620" y="350" as="sourcePoint" />
            <mxPoint x="670" y="300" as="targetPoint" />
            <Array as="points">
              <mxPoint x="990" y="475" />
            </Array>
          </mxGeometry>
        </mxCell>
        <mxCell id="AEgsP8jyehNwxKYyaoc1-65" value="Backpropagation" style="text;html=1;align=center;verticalAlign=middle;resizable=0;points=[];autosize=1;strokeColor=none;fillColor=none;fontSize=14;fontFamily=Times New Roman;" vertex="1" parent="1">
          <mxGeometry x="675" y="440" width="120" height="30" as="geometry" />
        </mxCell>
        <mxCell id="AEgsP8jyehNwxKYyaoc1-66" value="Local Model" style="swimlane;whiteSpace=wrap;html=1;fontFamily=Times New Roman;fontSize=14;direction=west;" vertex="1" parent="1">
          <mxGeometry x="300" y="447.4" width="180" height="72.6" as="geometry">
            <mxRectangle x="300" y="447.4" width="120" height="30" as="alternateBounds" />
          </mxGeometry>
        </mxCell>
        <mxCell id="AEgsP8jyehNwxKYyaoc1-72" value="&lt;span style=&quot;font-family: Helvetica; font-size: 12px;&quot;&gt;$$\mathcal H_{1}$$&lt;/span&gt;" style="ellipse;whiteSpace=wrap;html=1;aspect=fixed;fontFamily=Times New Roman;fontSize=14;" vertex="1" parent="1">
          <mxGeometry x="200" y="200" width="80" height="80" as="geometry" />
        </mxCell>
        <mxCell id="AEgsP8jyehNwxKYyaoc1-76" value="" style="shape=mxgraph.arrows2.wedgeArrowDashed2;html=1;bendable=0;startWidth=50;stepSize=15;rounded=0;dashed=1;fontFamily=Times New Roman;fontSize=14;" edge="1" parent="1">
          <mxGeometry width="100" height="100" relative="1" as="geometry">
            <mxPoint x="820" y="702.6" as="sourcePoint" />
            <mxPoint x="550" y="590" as="targetPoint" />
          </mxGeometry>
        </mxCell>
        <mxCell id="AEgsP8jyehNwxKYyaoc1-77" value="" style="endArrow=none;dashed=1;html=1;rounded=0;" edge="1" parent="1">
          <mxGeometry width="50" height="50" relative="1" as="geometry">
            <mxPoint x="200" y="520" as="sourcePoint" />
            <mxPoint x="1040" y="520" as="targetPoint" />
          </mxGeometry>
        </mxCell>
        <mxCell id="AEgsP8jyehNwxKYyaoc1-78" value="" style="endArrow=none;dashed=1;html=1;rounded=0;" edge="1" parent="1">
          <mxGeometry y="-80" width="50" height="50" relative="1" as="geometry">
            <mxPoint x="1040" y="520" as="sourcePoint" />
            <mxPoint x="1040" y="160" as="targetPoint" />
            <mxPoint as="offset" />
          </mxGeometry>
        </mxCell>
        <mxCell id="AEgsP8jyehNwxKYyaoc1-79" value="" style="group" vertex="1" connectable="0" parent="1">
          <mxGeometry x="390" y="560" width="140" height="42.60000000000002" as="geometry" />
        </mxCell>
        <mxCell id="AEgsP8jyehNwxKYyaoc1-68" value="" style="triangle;whiteSpace=wrap;html=1;direction=west;strokeWidth=5;" vertex="1" parent="AEgsP8jyehNwxKYyaoc1-79">
          <mxGeometry x="100" width="40" height="42.6" as="geometry" />
        </mxCell>
        <mxCell id="AEgsP8jyehNwxKYyaoc1-70" value="" style="endArrow=none;html=1;rounded=0;fontFamily=Times New Roman;fontSize=14;exitX=0.5;exitY=0;exitDx=0;exitDy=0;strokeWidth=4;" edge="1" parent="AEgsP8jyehNwxKYyaoc1-79" source="AEgsP8jyehNwxKYyaoc1-66">
          <mxGeometry width="50" height="50" relative="1" as="geometry">
            <mxPoint x="280" y="-40" as="sourcePoint" />
            <mxPoint y="20" as="targetPoint" />
          </mxGeometry>
        </mxCell>
        <mxCell id="AEgsP8jyehNwxKYyaoc1-71" value="" style="endArrow=none;html=1;rounded=0;fontFamily=Times New Roman;fontSize=14;entryX=1;entryY=0.5;entryDx=0;entryDy=0;strokeWidth=5;" edge="1" parent="AEgsP8jyehNwxKYyaoc1-79" target="AEgsP8jyehNwxKYyaoc1-68">
          <mxGeometry width="50" height="50" relative="1" as="geometry">
            <mxPoint y="20" as="sourcePoint" />
            <mxPoint x="330" y="-90" as="targetPoint" />
          </mxGeometry>
        </mxCell>
        <mxCell id="AEgsP8jyehNwxKYyaoc1-81" value="" style="triangle;whiteSpace=wrap;html=1;direction=west;strokeWidth=5;" vertex="1" parent="1">
          <mxGeometry x="420" y="890" width="40" height="42.6" as="geometry" />
        </mxCell>
        <mxCell id="AEgsP8jyehNwxKYyaoc1-85" value="" style="points=[];aspect=fixed;html=1;align=center;shadow=0;dashed=0;image;image=img/lib/allied_telesis/wireless/Laptop_Wireless.svg;" vertex="1" parent="1">
          <mxGeometry x="830" y="1110" width="121.51" height="100" as="geometry" />
        </mxCell>
        <mxCell id="AEgsP8jyehNwxKYyaoc1-87" value="" style="shape=partialRectangle;whiteSpace=wrap;html=1;bottom=0;right=0;fillColor=none;strokeWidth=5;fontFamily=Times New Roman;fontSize=14;" vertex="1" parent="1">
          <mxGeometry x="300" y="910" width="120" height="60" as="geometry" />
        </mxCell>
        <mxCell id="AEgsP8jyehNwxKYyaoc1-88" value="" style="triangle;whiteSpace=wrap;html=1;direction=south;strokeWidth=5;" vertex="1" parent="1">
          <mxGeometry x="910" y="1040" width="42.6" height="40" as="geometry" />
        </mxCell>
        <mxCell id="AEgsP8jyehNwxKYyaoc1-90" value="" style="line;strokeWidth=4;direction=south;html=1;fontFamily=Times New Roman;fontSize=14;" vertex="1" parent="1">
          <mxGeometry x="926.3" y="1080" width="10" height="80" as="geometry" />
        </mxCell>
        <mxCell id="AEgsP8jyehNwxKYyaoc1-91" value="&lt;span style=&quot;font-family: Helvetica; font-size: 12px;&quot;&gt;$$\mathcal H_{q}$$&lt;/span&gt;" style="ellipse;whiteSpace=wrap;html=1;aspect=fixed;fontFamily=Times New Roman;fontSize=14;fillColor=#ffe6cc;strokeColor=#d79b00;" vertex="1" parent="1">
          <mxGeometry x="220" y="1010" width="80" height="80" as="geometry" />
        </mxCell>
        <mxCell id="AEgsP8jyehNwxKYyaoc1-92" value="&lt;span style=&quot;font-family: Helvetica; font-size: 12px;&quot;&gt;$$\mathcal H_{Q}$$&lt;/span&gt;" style="ellipse;whiteSpace=wrap;html=1;aspect=fixed;fontFamily=Times New Roman;fontSize=14;fillColor=#fff2cc;strokeColor=#d6b656;" vertex="1" parent="1">
          <mxGeometry x="840" y="1210" width="80" height="80" as="geometry" />
        </mxCell>
        <mxCell id="AEgsP8jyehNwxKYyaoc1-93" value="" style="shape=mxgraph.arrows2.wedgeArrowDashed2;html=1;bendable=0;startWidth=50;stepSize=15;rounded=0;dashed=1;fontFamily=Times New Roman;fontSize=14;" edge="1" parent="1">
          <mxGeometry width="100" height="100" relative="1" as="geometry">
            <mxPoint x="820" y="800" as="sourcePoint" />
            <mxPoint x="470.0000000000002" y="907.4000000000001" as="targetPoint" />
          </mxGeometry>
        </mxCell>
        <mxCell id="AEgsP8jyehNwxKYyaoc1-94" value="" style="shape=mxgraph.arrows2.wedgeArrowDashed2;html=1;bendable=0;startWidth=50;stepSize=15;rounded=0;dashed=1;fontFamily=Times New Roman;fontSize=14;" edge="1" parent="1">
          <mxGeometry width="100" height="100" relative="1" as="geometry">
            <mxPoint x="880" y="840" as="sourcePoint" />
            <mxPoint x="900.0000000000002" y="1040.0000000000002" as="targetPoint" />
          </mxGeometry>
        </mxCell>
        <mxCell id="AEgsP8jyehNwxKYyaoc1-99" value="&lt;font style=&quot;font-size: 20px;&quot;&gt;$$\bf \Theta_1$$&lt;/font&gt;" style="text;html=1;align=center;verticalAlign=middle;resizable=0;points=[];autosize=1;fontSize=14;fontFamily=Times New Roman;" vertex="1" parent="1">
          <mxGeometry x="660" y="645" width="160" height="40" as="geometry" />
        </mxCell>
        <mxCell id="AEgsP8jyehNwxKYyaoc1-100" value="&lt;font style=&quot;font-size: 20px;&quot;&gt;$$\bf \Theta_q$$&lt;/font&gt;" style="text;html=1;align=center;verticalAlign=middle;resizable=0;points=[];autosize=1;fontSize=14;fontFamily=Times New Roman;" vertex="1" parent="1">
          <mxGeometry x="640" y="810" width="160" height="40" as="geometry" />
        </mxCell>
        <mxCell id="AEgsP8jyehNwxKYyaoc1-101" value="&lt;font style=&quot;font-size: 20px;&quot;&gt;$$\bf \Theta_Q$$&lt;/font&gt;" style="text;html=1;align=center;verticalAlign=middle;resizable=0;points=[];autosize=1;fontSize=14;fontFamily=Times New Roman;" vertex="1" parent="1">
          <mxGeometry x="805" y="880" width="170" height="40" as="geometry" />
        </mxCell>
        <mxCell id="AEgsP8jyehNwxKYyaoc1-103" value="" style="shape=mxgraph.arrows2.wedgeArrowDashed2;html=1;bendable=0;startWidth=50;stepSize=15;rounded=0;strokeWidth=4;fontFamily=Times New Roman;fontSize=20;" edge="1" parent="1">
          <mxGeometry width="100" height="100" relative="1" as="geometry">
            <mxPoint x="545" y="645" as="sourcePoint" />
            <mxPoint x="795" y="745" as="targetPoint" />
          </mxGeometry>
        </mxCell>
        <mxCell id="AEgsP8jyehNwxKYyaoc1-104" value="" style="shape=mxgraph.arrows2.wedgeArrowDashed2;html=1;bendable=0;startWidth=50;stepSize=15;rounded=0;strokeWidth=4;fontFamily=Times New Roman;fontSize=20;" edge="1" parent="1">
          <mxGeometry width="100" height="100" relative="1" as="geometry">
            <mxPoint x="490" y="850" as="sourcePoint" />
            <mxPoint x="790" y="750" as="targetPoint" />
          </mxGeometry>
        </mxCell>
        <mxCell id="AEgsP8jyehNwxKYyaoc1-105" value="" style="shape=mxgraph.arrows2.wedgeArrowDashed2;html=1;bendable=0;startWidth=50;stepSize=15;rounded=0;strokeWidth=4;fontFamily=Times New Roman;fontSize=20;" edge="1" parent="1">
          <mxGeometry width="100" height="100" relative="1" as="geometry">
            <mxPoint x="960" y="1030" as="sourcePoint" />
            <mxPoint x="940" y="840" as="targetPoint" />
          </mxGeometry>
        </mxCell>
        <mxCell id="AEgsP8jyehNwxKYyaoc1-107" value="&lt;h1&gt;BS&lt;/h1&gt;" style="text;html=1;strokeColor=none;fillColor=none;spacing=5;spacingTop=-20;whiteSpace=wrap;overflow=hidden;rounded=0;strokeWidth=4;fontFamily=Times New Roman;fontSize=20;" vertex="1" parent="1">
          <mxGeometry x="1000" y="700" width="80" height="65" as="geometry" />
        </mxCell>
        <mxCell id="AEgsP8jyehNwxKYyaoc1-108" value="&lt;h1&gt;UE&amp;nbsp;&lt;/h1&gt;" style="text;html=1;strokeColor=none;fillColor=none;spacing=5;spacingTop=-20;whiteSpace=wrap;overflow=hidden;rounded=0;strokeWidth=4;fontFamily=Times New Roman;fontSize=20;" vertex="1" parent="1">
          <mxGeometry x="277.5" y="80" width="155" height="57.4" as="geometry" />
        </mxCell>
        <mxCell id="AEgsP8jyehNwxKYyaoc1-110" value="FedConcat Codebook$$\Theta _{cat}$$" style="shape=process;whiteSpace=wrap;html=1;backgroundOutline=1;strokeWidth=2;fontFamily=Times New Roman;fontSize=20;" vertex="1" parent="1">
          <mxGeometry x="1120" y="645" width="130" height="155" as="geometry" />
        </mxCell>
        <mxCell id="AEgsP8jyehNwxKYyaoc1-114" value="" style="endArrow=classic;html=1;rounded=0;strokeWidth=2;fontFamily=Times New Roman;fontSize=20;exitX=1;exitY=0.25;exitDx=0;exitDy=0;" edge="1" parent="1" source="AEgsP8jyehNwxKYyaoc1-110">
          <mxGeometry width="50" height="50" relative="1" as="geometry">
            <mxPoint x="950" y="740" as="sourcePoint" />
            <mxPoint x="1250" y="770" as="targetPoint" />
            <Array as="points">
              <mxPoint x="1310" y="686" />
              <mxPoint x="1310" y="770" />
            </Array>
          </mxGeometry>
        </mxCell>
        <mxCell id="AEgsP8jyehNwxKYyaoc1-119" value="&lt;font style=&quot;font-size: 15px;&quot;&gt;Updata&lt;/font&gt;" style="edgeLabel;html=1;align=center;verticalAlign=middle;resizable=0;points=[];fontSize=33;fontFamily=Helvetica;rotation=90;" vertex="1" connectable="0" parent="AEgsP8jyehNwxKYyaoc1-114">
          <mxGeometry x="-0.2233" y="-1" relative="1" as="geometry">
            <mxPoint x="31" y="15" as="offset" />
          </mxGeometry>
        </mxCell>
        <mxCell id="AEgsP8jyehNwxKYyaoc1-116" value="FedAvg Codebook$$\Theta _{avg}$$" style="shape=process;whiteSpace=wrap;html=1;backgroundOutline=1;strokeWidth=2;fontFamily=Times New Roman;fontSize=20;" vertex="1" parent="1">
          <mxGeometry x="1400" y="645" width="130" height="155" as="geometry" />
        </mxCell>
        <mxCell id="AEgsP8jyehNwxKYyaoc1-117" value="" style="endArrow=classic;html=1;rounded=0;strokeWidth=2;fontFamily=Times New Roman;fontSize=20;exitX=1;exitY=0.25;exitDx=0;exitDy=0;" edge="1" parent="1" source="AEgsP8jyehNwxKYyaoc1-116">
          <mxGeometry width="50" height="50" relative="1" as="geometry">
            <mxPoint x="1230" y="740" as="sourcePoint" />
            <mxPoint x="1530" y="770" as="targetPoint" />
            <Array as="points">
              <mxPoint x="1590" y="686" />
              <mxPoint x="1590" y="770" />
            </Array>
          </mxGeometry>
        </mxCell>
        <mxCell id="AEgsP8jyehNwxKYyaoc1-120" value="&lt;font style=&quot;font-size: 15px;&quot;&gt;Updata&lt;/font&gt;" style="edgeLabel;html=1;align=center;verticalAlign=middle;resizable=0;points=[];fontSize=33;fontFamily=Helvetica;rotation=90;" vertex="1" connectable="0" parent="1">
          <mxGeometry x="1580" y="684.9983680578163" as="geometry">
            <mxPoint x="37" y="-33" as="offset" />
          </mxGeometry>
        </mxCell>
        <mxCell id="AEgsP8jyehNwxKYyaoc1-125" value="" style="group" vertex="1" connectable="0" parent="1">
          <mxGeometry x="1080" y="620" width="280" height="210" as="geometry" />
        </mxCell>
        <mxCell id="AEgsP8jyehNwxKYyaoc1-121" value="" style="endArrow=none;dashed=1;html=1;dashPattern=1 3;strokeWidth=2;rounded=0;fontFamily=Times New Roman;fontSize=15;" edge="1" parent="AEgsP8jyehNwxKYyaoc1-125">
          <mxGeometry width="50" height="50" relative="1" as="geometry">
            <mxPoint as="sourcePoint" />
            <mxPoint x="280" as="targetPoint" />
          </mxGeometry>
        </mxCell>
        <mxCell id="AEgsP8jyehNwxKYyaoc1-122" value="" style="endArrow=none;dashed=1;html=1;dashPattern=1 3;strokeWidth=2;rounded=0;fontFamily=Times New Roman;fontSize=15;" edge="1" parent="AEgsP8jyehNwxKYyaoc1-125">
          <mxGeometry width="50" height="50" relative="1" as="geometry">
            <mxPoint as="sourcePoint" />
            <mxPoint y="210" as="targetPoint" />
          </mxGeometry>
        </mxCell>
        <mxCell id="AEgsP8jyehNwxKYyaoc1-123" value="" style="endArrow=none;dashed=1;html=1;dashPattern=1 3;strokeWidth=2;rounded=0;fontFamily=Times New Roman;fontSize=15;" edge="1" parent="AEgsP8jyehNwxKYyaoc1-125">
          <mxGeometry width="50" height="50" relative="1" as="geometry">
            <mxPoint y="210" as="sourcePoint" />
            <mxPoint x="280" y="210" as="targetPoint" />
          </mxGeometry>
        </mxCell>
        <mxCell id="AEgsP8jyehNwxKYyaoc1-124" value="" style="endArrow=none;dashed=1;html=1;dashPattern=1 3;strokeWidth=2;rounded=0;fontFamily=Times New Roman;fontSize=15;" edge="1" parent="AEgsP8jyehNwxKYyaoc1-125">
          <mxGeometry width="50" height="50" relative="1" as="geometry">
            <mxPoint x="280" as="sourcePoint" />
            <mxPoint x="280" y="210" as="targetPoint" />
          </mxGeometry>
        </mxCell>
        <mxCell id="AEgsP8jyehNwxKYyaoc1-126" value="" style="group" vertex="1" connectable="0" parent="1">
          <mxGeometry x="1360" y="620" width="280" height="210" as="geometry" />
        </mxCell>
        <mxCell id="AEgsP8jyehNwxKYyaoc1-127" value="" style="endArrow=none;dashed=1;html=1;dashPattern=1 3;strokeWidth=2;rounded=0;fontFamily=Times New Roman;fontSize=15;" edge="1" parent="AEgsP8jyehNwxKYyaoc1-126">
          <mxGeometry width="50" height="50" relative="1" as="geometry">
            <mxPoint as="sourcePoint" />
            <mxPoint x="280" as="targetPoint" />
          </mxGeometry>
        </mxCell>
        <mxCell id="AEgsP8jyehNwxKYyaoc1-128" value="" style="endArrow=none;dashed=1;html=1;dashPattern=1 3;strokeWidth=2;rounded=0;fontFamily=Times New Roman;fontSize=15;" edge="1" parent="AEgsP8jyehNwxKYyaoc1-126">
          <mxGeometry width="50" height="50" relative="1" as="geometry">
            <mxPoint as="sourcePoint" />
            <mxPoint y="210" as="targetPoint" />
          </mxGeometry>
        </mxCell>
        <mxCell id="AEgsP8jyehNwxKYyaoc1-129" value="" style="endArrow=none;dashed=1;html=1;dashPattern=1 3;strokeWidth=2;rounded=0;fontFamily=Times New Roman;fontSize=15;" edge="1" parent="AEgsP8jyehNwxKYyaoc1-126">
          <mxGeometry width="50" height="50" relative="1" as="geometry">
            <mxPoint y="210" as="sourcePoint" />
            <mxPoint x="280" y="210" as="targetPoint" />
          </mxGeometry>
        </mxCell>
        <mxCell id="AEgsP8jyehNwxKYyaoc1-130" value="" style="endArrow=none;dashed=1;html=1;dashPattern=1 3;strokeWidth=2;rounded=0;fontFamily=Times New Roman;fontSize=15;" edge="1" parent="AEgsP8jyehNwxKYyaoc1-126">
          <mxGeometry width="50" height="50" relative="1" as="geometry">
            <mxPoint x="280" as="sourcePoint" />
            <mxPoint x="280" y="210" as="targetPoint" />
          </mxGeometry>
        </mxCell>
        <mxCell id="AEgsP8jyehNwxKYyaoc1-134" value="$$\bf \Theta_{cat} \,or\,\bf \Theta_{avg}&lt;br&gt;$$" style="text;html=1;align=center;verticalAlign=middle;resizable=0;points=[];autosize=1;strokeColor=none;fillColor=none;fontSize=15;fontFamily=Times New Roman;rotation=15;" vertex="1" parent="1">
          <mxGeometry x="480" y="700" width="270" height="50" as="geometry" />
        </mxCell>
        <mxCell id="AEgsP8jyehNwxKYyaoc1-138" value="$$\bf \Theta_{cat} \,or\,\bf \Theta_{avg}&lt;br&gt;$$" style="text;html=1;align=center;verticalAlign=middle;resizable=0;points=[];autosize=1;strokeColor=none;fillColor=none;fontSize=15;fontFamily=Times New Roman;rotation=-15;" vertex="1" parent="1">
          <mxGeometry x="450" y="740" width="270" height="50" as="geometry" />
        </mxCell>
        <mxCell id="AEgsP8jyehNwxKYyaoc1-139" value="$$\bf \Theta_{cat} \,or\,\bf \Theta_{avg}&lt;br&gt;$$" style="text;html=1;align=center;verticalAlign=middle;resizable=0;points=[];autosize=1;strokeColor=none;fillColor=none;fontSize=15;fontFamily=Times New Roman;rotation=-110;" vertex="1" parent="1">
          <mxGeometry x="860" y="920" width="270" height="50" as="geometry" />
        </mxCell>
        <mxCell id="AEgsP8jyehNwxKYyaoc1-140" value="" style="swimlane;whiteSpace=wrap;html=1;strokeWidth=2;fontFamily=Times New Roman;fontSize=15;rotation=90;direction=south;" vertex="1" parent="1">
          <mxGeometry x="1260.96" y="467.18" width="187.49" height="526.88" as="geometry" />
        </mxCell>
        <mxCell id="AEgsP8jyehNwxKYyaoc1-141" value="&lt;b&gt;&lt;font style=&quot;font-size: 16px;&quot;&gt;Global Model&lt;/font&gt;&lt;/b&gt;" style="text;html=1;align=center;verticalAlign=middle;resizable=0;points=[];autosize=1;strokeColor=none;fillColor=none;fontSize=15;fontFamily=Times New Roman;" vertex="1" parent="AEgsP8jyehNwxKYyaoc1-140">
          <mxGeometry x="33.74000000000001" y="332.82" width="120" height="30" as="geometry" />
        </mxCell>
      </root>
    </mxGraphModel>
  </diagram>
</mxfile>
